# xmcd
#
# Track frame offsets: 
#        150
#        20115
#        36665
#        57465
#        86855
#        96670
#        134185
#        155535
#
# Disc length: 2355 seconds
#
# Revision: 1
# Processed by: cddbd v1.5.2PL0 Copyright (c) Steve Scherf et al.
# Submitted via: ExactAudioCopy v0.95a5
#
DISCID=80093108
DTITLE=Larry Miller - Larryocaster
DYEAR=1997
DGENRE=Blues
TTITLE0=Mr. President
TTITLE1=FBI
TTITLE2=Back Stabber Blues
TTITLE3=What In The World
TTITLE4=Kisses
TTITLE5=No Mans Land
TTITLE6=Got Your Letter
TTITLE7=One Rule For You
EXTD=
EXTT0=
EXTT1=
EXTT2=
EXTT3=
EXTT4=
EXTT5=
EXTT6=
EXTT7=
PLAYORDER=
